<svg width="200" height="60" viewBox="0 0 200 60" fill="none" xmlns="http://www.w3.org/2000/svg">
  <path d="M30 10C16.7452 10 6 20.7452 6 34C6 47.2548 16.7452 58 30 58C43.2548 58 54 47.2548 54 34C54 20.7452 43.2548 10 30 10Z" fill="#2E7D32"/>
  <path d="M30 14C18.9543 14 10 22.9543 10 34C10 45.0457 18.9543 54 30 54C41.0457 54 50 45.0457 50 34C50 22.9543 41.0457 14 30 14Z" fill="#4CAF50"/>
  <path d="M30 19C21.7157 19 15 25.7157 15 34C15 42.2843 21.7157 49 30 49C38.2843 49 45 42.2843 45 34C45 25.7157 38.2843 19 30 19Z" fill="#8BC34A"/>
  <path d="M25 27C25 27 28 22 30 22C32 22 35 27 35 27C35 27 37 32 35 37C33 42 30 38 30 38C30 38 27 42 25 37C23 32 25 27 25 27Z" fill="#FFF9C4"/>
  <path d="M30 4L32 8H28L30 4Z" fill="#795548"/>
  <path d="M30 4V10" stroke="#795548" stroke-width="2" stroke-linecap="round"/>
  <path d="M20 8C20 8 18 2 24 2C30 2 28 8 28 8" stroke="#795548" stroke-width="2" stroke-linecap="round"/>
  <path d="M40 8C40 8 38 2 32 2C26 2 28 8 28 8" stroke="#795548" stroke-width="2" stroke-linecap="round"/>
  
  <!-- "United" text -->
  <path d="M63 25.5V40H66V25.5H63Z" fill="#2E7D32"/>
  <path d="M68 25.5V40H71V30L74.5 36H75.5L79 30V40H82V25.5H79L75 32.5L71 25.5H68Z" fill="#2E7D32"/>
  <path d="M84 25.5V40H87V25.5H84Z" fill="#2E7D32"/>
  <path d="M92 28.5V40H95V28.5H99V25.5H88V28.5H92Z" fill="#2E7D32"/>
  <path d="M101 25.5V40H111.5V37H104V34H110V31H104V28.5H111V25.5H101Z" fill="#2E7D32"/>
  <path d="M113 25.5V40H116V34H119.5C122.5 34 124.5 32 124.5 29.5C124.5 27.5 122.5 25.5 119.5 25.5H113ZM116 28.5H119C120.5 28.5 121.5 29 121.5 30C121.5 31 120.5 31.5 119 31.5H116V28.5Z" fill="#2E7D32"/>
  
  <!-- "Farms" text -->
  <path d="M134 25.5V40H144.5V37H137V34H143V31H137V28.5H144V25.5H134Z" fill="#FF8F00"/>
  <path d="M146 25.5V40H149V36L150.5 34.5L154.5 40H158.5L153 32.5L158 25.5H154.5L149 32V25.5H146Z" fill="#FF8F00"/>
  <path d="M159 25.5V28.5H164V40H167V28.5H172V25.5H159Z" fill="#FF8F00"/>
  <path d="M173 25.5V40H176V35.5H178.5L182 40H185.5L181.5 34.5C183.5 34 185 32.5 185 30C185 27.5 183 25.5 180 25.5H173ZM176 28.5H179.5C180.5 28.5 182 28.8 182 30C182 31.2 180.5 32 179.5 32H176V28.5Z" fill="#FF8F00"/>
  <path d="M186 25.5V28.5H191V40H194V28.5H199V25.5H186Z" fill="#FF8F00"/>
</svg>
